<svg width="100" height="130" viewBox="0 0 100 130" fill="none" xmlns="http://www.w3.org/2000/svg">
<g clip-path="url(#clip0_1725_2089)">
<path d="M70.723 35.8938C70.723 36.6347 70.699 37.3694 70.651 38.098C70.382 42.2997 69.3214 46.4126 67.5252 50.2198C67.5112 50.2523 67.4949 50.2825 67.4811 50.3127C67.3975 50.4892 67.3116 50.6658 67.2234 50.84C66.6892 51.9167 66.0965 52.9635 65.4481 53.9755C62.4863 58.6213 58.4267 62.4655 53.628 65.1682C48.8294 67.871 43.4395 69.3492 37.9345 69.4721L38.2664 88.5734L42.5944 86.2926L43.3672 87.7628L38.2989 90.4339L38.9185 125.91L38.9254 126.384L35.5791 126.665L35.586 126.653L36.6396 69.4744C32.2086 69.4108 27.8345 68.4668 23.771 66.6973C19.7076 64.9278 16.0358 62.368 12.969 59.1666C12.7579 58.9483 12.5489 58.723 12.3447 58.5C12.3354 58.4907 12.3285 58.4814 12.3215 58.4744C9.76624 55.6855 7.69969 52.4848 6.20894 49.0074C6.24146 49.0446 6.27624 49.0794 6.30877 49.1166C2.9396 41.2312 2.71109 32.3548 5.67007 24.3062C8.62905 16.2577 14.5515 9.64646 22.2237 5.82732C22.3397 5.76925 22.4581 5.71351 22.5742 5.65544C30.1634 1.99679 38.8491 1.32547 46.9095 3.77456C54.97 6.22365 61.817 11.6144 66.0932 18.8782C66.2975 19.222 66.4948 19.5727 66.6851 19.9257C69.3414 24.8277 70.7295 30.3172 70.723 35.8938V35.8938Z" fill="#E5E5E5"/>
<path d="M46.0149 126.743C51.5347 126.743 56.0093 122.264 56.0093 116.74C56.0093 111.215 51.5347 106.737 46.0149 106.737C40.4952 106.737 36.0205 111.215 36.0205 116.74C36.0205 122.264 40.4952 126.743 46.0149 126.743Z" fill="#2F2E41"/>
<path d="M57.8274 123.616H48.8735V126.655H57.8274V123.616Z" fill="#2F2E41"/>
<path d="M57.8906 126.655C58.4146 126.655 58.8394 125.521 58.8394 124.122C58.8394 122.724 58.4146 121.59 57.8906 121.59C57.3666 121.59 56.9418 122.724 56.9418 124.122C56.9418 125.521 57.3666 126.655 57.8906 126.655Z" fill="#2F2E41"/>
<path d="M55.7388 123.384H46.7849V126.422H55.7388V123.384Z" fill="#2F2E41"/>
<path d="M55.802 126.422C56.326 126.422 56.7508 125.289 56.7508 123.89C56.7508 122.491 56.326 121.358 55.802 121.358C55.278 121.358 54.8531 122.491 54.8531 123.89C54.8531 125.289 55.278 126.422 55.802 126.422Z" fill="#2F2E41"/>
<path d="M36.32 107.437C35.513 103.82 38.0927 100.165 42.0818 99.2736C46.071 98.3821 49.9591 100.592 50.7661 104.209C51.5731 107.826 48.9293 109.16 44.9401 110.052C40.951 110.943 37.127 111.055 36.32 107.437Z" fill="#5834EA"/>
<path d="M49.8562 116.17C49.3334 116.181 48.8206 116.027 48.39 115.73C47.9595 115.433 47.633 115.008 47.4567 114.516C47.447 114.487 47.443 114.456 47.4451 114.426C47.4472 114.395 47.4553 114.366 47.4689 114.338C47.4824 114.311 47.5012 114.287 47.5242 114.267C47.5472 114.247 47.5739 114.231 47.6028 114.222C47.6317 114.212 47.6622 114.208 47.6926 114.21C47.723 114.212 47.7527 114.22 47.78 114.234C47.8073 114.247 47.8316 114.266 47.8516 114.289C47.8716 114.312 47.8869 114.339 47.8967 114.368C48.248 115.415 49.4511 115.962 50.5781 115.588C51.1376 115.406 51.6025 115.009 51.8712 114.485C51.9866 114.26 52.0559 114.013 52.0753 113.761C52.0946 113.508 52.0636 113.254 51.9839 113.013C51.9742 112.984 51.9703 112.954 51.9724 112.923C51.9745 112.893 51.9825 112.863 51.9961 112.836C52.0097 112.809 52.0285 112.784 52.0515 112.764C52.0744 112.744 52.1011 112.729 52.13 112.719C52.1589 112.709 52.1894 112.706 52.2198 112.708C52.2502 112.71 52.2799 112.718 52.3072 112.731C52.3345 112.745 52.3589 112.764 52.3789 112.787C52.3989 112.81 52.4142 112.837 52.4239 112.865C52.5232 113.164 52.5621 113.479 52.5385 113.793C52.5149 114.107 52.4293 114.413 52.2865 114.693C51.9622 115.327 51.4007 115.807 50.7241 116.029C50.4442 116.122 50.1512 116.17 49.8562 116.17V116.17Z" fill="white"/>
<path d="M54.3082 117.53C54.5764 118.055 54.6253 118.665 54.4441 119.226C54.2629 119.787 53.8664 120.253 53.3419 120.522C52.8174 120.79 52.2077 120.839 51.6471 120.658C51.0865 120.476 50.6209 120.079 50.3526 119.554L50.3506 119.551C49.7931 118.457 50.5635 117.778 51.6563 117.22C52.7492 116.662 53.7506 116.436 54.3082 117.53Z" fill="white"/>
<path d="M89.9791 126.833H1.56239C1.50084 126.833 1.44181 126.808 1.39829 126.765C1.35477 126.721 1.33032 126.662 1.33032 126.601C1.33032 126.539 1.35477 126.48 1.39829 126.436C1.44181 126.393 1.50084 126.368 1.56239 126.368H89.9791C90.0406 126.368 90.0997 126.393 90.1432 126.436C90.1867 126.48 90.2112 126.539 90.2112 126.601C90.2112 126.662 90.1867 126.721 90.1432 126.765C90.0997 126.808 90.0406 126.833 89.9791 126.833Z" fill="#3F3D56"/>
<path d="M43.7789 129.982C44.7098 129.742 44.8445 127.141 44.0798 124.174C43.3151 121.206 41.9405 118.995 41.0097 119.235C40.0788 119.475 39.9441 122.076 40.7088 125.044C41.4736 128.011 42.8481 130.222 43.7789 129.982Z" fill="#2F2E41"/>
<path d="M60.561 104.815H56.7584C56.7222 104.815 56.6868 104.804 56.657 104.784C56.6271 104.763 56.6041 104.734 56.5911 104.7C56.5781 104.667 56.5756 104.63 56.584 104.594C56.5923 104.559 56.6112 104.527 56.6381 104.503L60.0959 101.369H56.901C56.8535 101.369 56.8079 101.35 56.7742 101.316C56.7406 101.282 56.7217 101.237 56.7217 101.189C56.7217 101.141 56.7406 101.096 56.7742 101.062C56.8079 101.029 56.8535 101.01 56.901 101.01H60.561C60.5972 101.01 60.6326 101.021 60.6624 101.041C60.6923 101.062 60.7153 101.091 60.7283 101.125C60.7414 101.158 60.7438 101.195 60.7355 101.231C60.7271 101.266 60.7082 101.298 60.6814 101.322L57.2236 104.456H60.561C60.6085 104.456 60.6542 104.475 60.6878 104.509C60.7214 104.543 60.7403 104.588 60.7403 104.636C60.7403 104.684 60.7214 104.729 60.6878 104.763C60.6542 104.796 60.6085 104.815 60.561 104.815V104.815Z" fill="#CBCBCB"/>
<path d="M65.4028 99.2515H61.6002C61.564 99.2515 61.5286 99.2405 61.4988 99.22C61.4689 99.1995 61.4459 99.1704 61.4329 99.1366C61.4199 99.1028 61.4174 99.0658 61.4258 99.0305C61.4341 98.9953 61.453 98.9634 61.4799 98.939L64.9377 95.8047H61.7428C61.6953 95.8047 61.6497 95.7858 61.616 95.7521C61.5824 95.7185 61.5635 95.6728 61.5635 95.6252C61.5635 95.5776 61.5824 95.532 61.616 95.4983C61.6497 95.4646 61.6953 95.4457 61.7428 95.4457H65.4028C65.439 95.4457 65.4744 95.4567 65.5042 95.4772C65.5341 95.4977 65.5571 95.5268 65.5701 95.5607C65.5832 95.5945 65.5856 95.6315 65.5773 95.6667C65.5689 95.702 65.55 95.7339 65.5232 95.7583L62.0654 98.8926H65.4028C65.4503 98.8926 65.496 98.9115 65.5296 98.9451C65.5632 98.9788 65.5821 99.0244 65.5821 99.072C65.5821 99.1196 65.5632 99.1653 65.5296 99.199C65.496 99.2326 65.4503 99.2515 65.4028 99.2515V99.2515Z" fill="#CBCBCB"/>
<path d="M63.2509 93.1492H59.4484C59.4122 93.1492 59.3768 93.1383 59.3469 93.1178C59.3171 93.0972 59.2941 93.0682 59.281 93.0343C59.268 93.0005 59.2655 92.9635 59.2739 92.9282C59.2823 92.893 59.3012 92.8611 59.328 92.8367L62.7858 89.7024H59.591C59.5434 89.7024 59.4978 89.6835 59.4642 89.6498C59.4306 89.6162 59.4117 89.5705 59.4117 89.5229C59.4117 89.4753 59.4306 89.4297 59.4642 89.396C59.4978 89.3624 59.5434 89.3434 59.591 89.3434H63.2509C63.2871 89.3434 63.3225 89.3544 63.3524 89.3749C63.3823 89.3954 63.4052 89.4245 63.4183 89.4584C63.4313 89.4922 63.4338 89.5292 63.4254 89.5644C63.417 89.5997 63.3982 89.6316 63.3713 89.656L59.9135 92.7903H63.2509C63.2985 92.7903 63.3441 92.8092 63.3777 92.8428C63.4114 92.8765 63.4303 92.9222 63.4303 92.9698C63.4303 93.0174 63.4114 93.063 63.3777 93.0967C63.3441 93.1303 63.2985 93.1492 63.2509 93.1492V93.1492Z" fill="#CBCBCB"/>
<path d="M89.6047 41.1981L92.574 38.8213C90.2673 38.5665 89.3195 39.8256 88.9317 40.8222C87.1296 40.0733 85.1678 41.0548 85.1678 41.0548L91.1087 43.2134C90.809 42.4122 90.2873 41.7131 89.6047 41.1981V41.1981Z" fill="#3F3D56"/>
<path d="M4.4369 2.41014L7.40613 0.0332866C5.09946 -0.221418 4.1517 1.03766 3.76382 2.03423C1.96176 1.28531 0 2.26682 0 2.26682L5.94088 4.42541C5.64118 3.62421 5.11946 2.92514 4.4369 2.41014V2.41014Z" fill="#3F3D56"/>
<path d="M97.0308 10.5394L100 8.1625C97.6933 7.90779 96.7456 9.16687 96.3577 10.1634C94.5556 9.41452 92.5939 10.396 92.5939 10.396L98.5348 12.5546C98.235 11.7534 97.7133 11.0543 97.0308 10.5394Z" fill="#3F3D56"/>
</g>
<defs>
<clipPath id="clip0_1725_2089">
<rect width="100" height="130" fill="white"/>
</clipPath>
</defs>
</svg>
