<svg width="400" height="284" viewBox="0 0 400 284" fill="none" xmlns="http://www.w3.org/2000/svg">
<g clip-path="url(#clip0_1483_2228)">
<g opacity="0.5">
<path d="M246.064 40.2968C244.957 40.612 243.601 41.4331 242.934 43.6782C241.625 48.0791 244.666 51.0714 243.664 55.6591C243.386 56.8761 242.856 58.0213 242.11 59.0211C240.887 60.6826 239.559 61.4686 238.269 62.6321C236.634 64.1184 235.462 66.0467 234.895 68.1848C234.273 70.5446 234.221 73.0189 234.743 75.4029C235.202 77.3951 235.982 78.8465 236.666 80.4614C237.515 82.5211 238.18 84.6528 238.65 86.8312C238.908 87.892 239.054 88.9772 239.085 90.0686C239.066 91.5188 238.936 92.9653 238.697 94.3956L236.836 107.4C236.554 109.1 236.384 110.817 236.328 112.54C236.352 114.267 236.551 115.986 236.922 117.673C237.574 121.112 238.277 124.677 239.772 126.498C241.268 128.319 243.815 127.665 245.38 123.98C246.867 120.455 246.902 115.75 248.215 111.984C250.285 106.05 254.398 105.252 256.681 99.5903C258.871 94.1427 258.199 87.4966 259.31 81.3019C260.087 76.862 261.799 72.8152 262.805 68.4299C264.25 62.1145 264.106 55.5579 262.953 50.7018C262.076 46.7117 260.178 43.0188 257.446 39.9855C256.479 38.9155 255.442 37.9621 254.227 37.8649C252.933 37.7637 251.803 39.3941 250.526 39.8844C249.05 40.4642 247.566 39.8688 246.064 40.2968Z" fill="#5834EA"/>
<path d="M253.066 38.1956C253.066 38.1956 250.875 94.3605 241.664 127.478" stroke="#433D5C" stroke-width="2" stroke-miterlimit="10"/>
<path d="M242.879 43.9429C242.879 43.9429 252.724 52.9237 250.856 70.0136" stroke="#433D5C" stroke-width="2" stroke-miterlimit="10"/>
<path d="M234.619 69.5C234.619 69.5 250.778 72.7569 249.578 82.442" stroke="#433D5C" stroke-width="2" stroke-miterlimit="10"/>
<path d="M262.98 50.5851C262.98 50.5851 256.44 56.3206 250.615 72.5662" stroke="#433D5C" stroke-width="2" stroke-miterlimit="10"/>
<path d="M256.592 99.6837C256.592 99.6837 252.13 103.186 248.549 90.9247" stroke="#433D5C" stroke-width="2" stroke-miterlimit="10"/>
<path d="M237.338 106.847C237.338 106.847 246.436 105.657 247.275 99.9482" stroke="#433D5C" stroke-width="2" stroke-miterlimit="10"/>
</g>
<path d="M268.06 2.62636C265.807 2.961 263.096 4.00772 261.982 7.23349C259.796 13.5605 266.44 18.3505 264.91 24.9616C264.454 26.7809 263.492 28.4336 262.137 29.7283C259.807 32.0279 257.143 33.0319 254.619 34.5922C252.095 36.1526 249.473 38.6079 248.289 42.3745C247.151 45.9972 247.644 49.9973 248.829 52.9857C250.013 55.9741 251.803 58.2038 253.403 60.663C255.348 63.6899 256.973 66.9109 258.254 70.2741C258.9 71.8071 259.333 73.4213 259.543 75.0719C259.749 77.0953 259.489 79.2705 259.229 81.3989L256.918 100.364C256.611 102.886 256.3 105.446 256.475 107.874C256.673 110.672 257.5 113.116 258.316 115.501C260.071 120.645 261.951 126.007 265.263 128.84C268.576 131.673 273.772 131.066 276.572 125.797C279.236 120.781 278.747 113.859 281.019 108.47C284.599 99.9753 293.019 99.2866 297.069 91.2241C300.952 83.4885 298.782 73.5933 300.343 64.6047C301.461 58.1648 304.49 52.4059 306.044 46.0672C308.284 36.9347 307.209 27.2652 304.25 19.9965C301.29 12.7278 296.611 7.54478 291.589 3.56413C289.461 1.87147 287.205 0.342249 284.677 0.0620859C281.99 -0.237533 279.842 2.02712 277.259 2.59912C274.254 3.2256 271.116 2.17109 268.06 2.62636Z" fill="#5834EA"/>
<path d="M282.304 0.361938C282.304 0.361938 284.424 82.8117 269.271 130.49" stroke="#433D5C" stroke-width="2" stroke-miterlimit="10"/>
<path d="M261.897 7.63062C261.897 7.63062 283.333 22.0279 281.496 46.9936" stroke="#433D5C" stroke-width="2" stroke-miterlimit="10"/>
<path d="M247.827 44.2736C247.827 44.2736 281.659 50.9897 280.324 65.1068" stroke="#433D5C" stroke-width="2" stroke-miterlimit="10"/>
<path d="M304.288 19.7865C304.288 19.7865 291.43 27.456 281.302 50.6862" stroke="#433D5C" stroke-width="2" stroke-miterlimit="10"/>
<path d="M296.867 91.3332C296.867 91.3332 288.052 96.0026 279.186 77.4768" stroke="#433D5C" stroke-width="2" stroke-miterlimit="10"/>
<path d="M257.865 99.5864C257.865 99.5864 276.556 98.9132 277.621 90.6056" stroke="#433D5C" stroke-width="2" stroke-miterlimit="10"/>
<path d="M354.639 196.317C355.351 195.735 355.869 194.951 356.126 194.068C356.321 193.173 355.94 192.103 355.086 191.776C354.13 191.41 353.109 192.071 352.336 192.745C351.563 193.418 350.674 194.18 349.66 194.036C350.181 193.563 350.571 192.963 350.792 192.294C351.012 191.625 351.056 190.91 350.919 190.219C350.875 189.933 350.754 189.664 350.569 189.441C350.037 188.873 349.078 189.118 348.441 189.566C346.422 190.99 345.858 193.737 345.847 196.212C345.645 195.321 345.816 194.391 345.808 193.488C345.8 192.585 345.552 191.542 344.783 191.068C344.306 190.811 343.77 190.683 343.229 190.698C342.321 190.663 341.311 190.756 340.69 191.422C339.913 192.247 340.119 193.636 340.791 194.535C341.462 195.433 342.48 196.013 343.42 196.644C344.173 197.092 344.815 197.705 345.299 198.437C345.356 198.539 345.403 198.646 345.439 198.756H351.128C352.403 198.106 353.584 197.285 354.639 196.317Z" fill="#5834EA"/>
<path opacity="0.1" d="M56.982 186.9C69.3391 202.644 64.5392 225.644 56.6868 244.061C54.0577 250.229 51.083 256.754 52.1937 263.365C53.549 271.451 60.7373 277.373 68.3178 280.486C82.1041 286.198 98.6087 284.837 111.273 276.941C122.22 270.116 130.061 259.019 141.195 252.505C159.835 241.61 183.548 245.723 203.781 253.229C218.095 258.54 233.745 265.451 247.97 259.898C257.978 256.007 264.898 246.485 268.669 236.407C270.491 231.539 271.811 226.29 275.271 222.399C277.337 220.107 280.032 218.477 282.797 217.107C308.04 204.574 339.884 211.27 364.381 197.387C380.928 188.001 391.522 170.293 396.225 151.829C400.928 133.366 400.369 114.003 399.177 94.9909C398.33 81.4769 396.812 67.0524 388.194 56.6202C379.08 45.5888 363.433 41.4836 349.294 43.5809C335.154 45.6783 322.331 53.1882 311.069 61.99C296.976 72.9903 283.908 86.6911 266.603 91.1503C254.821 94.1854 242.425 92.5239 230.27 91.9519C209.951 90.9908 189.629 93.1193 169.424 95.454C150.08 97.6953 130.589 100.162 112.17 106.466C99.1291 110.929 88.6749 119.027 76.3604 124.684C68.3333 128.373 59.58 129.393 51.984 134.089C42.6209 139.875 34.0424 149.942 36.4501 161.716C38.7103 172.927 50.4189 178.546 56.982 186.9Z" fill="#5834EA"/>
<path opacity="0.1" d="M214.503 186.892C306.228 186.892 380.587 179.736 380.587 170.907C380.587 162.079 306.228 154.923 214.503 154.923C122.777 154.923 48.4189 162.079 48.4189 170.907C48.4189 179.736 122.777 186.892 214.503 186.892Z" fill="#5834EA"/>
<path d="M170.763 165.923L169.462 167.818C169.462 167.818 170.88 169.713 171.016 169.95C171.152 170.188 175.152 169.833 175.152 169.833L175.505 168.413L174.915 166.756L170.763 165.923Z" fill="#E6E6F0"/>
<path d="M127.024 164.857L124.422 165.328L126.076 168.53L127.851 169.475L129.506 170.658L129.979 169.359L128.795 166.868L127.024 164.857Z" fill="#FDC2CC"/>
<path d="M169.583 134.058C169.583 134.058 183.416 137.373 186.014 141.062C186.014 141.062 188.379 143.078 186.014 146.747C183.649 150.417 180.34 158.713 180.34 158.713C180.34 158.713 177.975 166.767 177.031 167.359C176.088 167.95 170.647 168.425 170.173 166.191C170.173 166.191 173.245 161.335 173.245 159.082C173.245 156.829 178.328 146.171 178.328 146.171C178.328 146.171 166.744 144.868 163.078 145.697C159.412 146.525 164.736 132.755 169.583 134.058Z" fill="#565171"/>
<path opacity="0.1" d="M169.583 134.058C169.583 134.058 183.416 137.373 186.014 141.062C186.014 141.062 188.379 143.078 186.014 146.747C183.649 150.417 180.34 158.713 180.34 158.713C180.34 158.713 177.975 166.767 177.031 167.359C176.088 167.95 170.647 168.425 170.173 166.191C170.173 166.191 173.245 161.335 173.245 159.082C173.245 156.829 178.328 146.171 178.328 146.171C178.328 146.171 166.744 144.868 163.078 145.697C159.412 146.525 164.736 132.755 169.583 134.058Z" fill="#1A191F"/>
<path d="M166.744 137.257C166.717 137.945 166.643 138.72 166.538 139.552C165.781 145.584 163.315 154.553 163.315 154.553C163.315 154.553 160.833 159.884 160.123 163.32C159.412 166.756 154.566 167.6 154.566 167.6C154.566 167.6 141.323 169.156 138.604 168.549C135.886 167.942 131.614 170.328 129.502 169.97C127.389 169.612 126.073 164.639 126.073 164.639C129.739 164.66 133.368 163.893 136.713 162.39C142.15 159.903 149.956 161.086 149.956 161.086C150.538 160.917 151.08 160.63 151.547 160.243C152.014 159.856 152.398 159.378 152.674 158.837C153.501 157.059 153.501 146.28 153.265 145.568C151.711 140.899 151.839 137.903 152.286 136.156C152.435 135.392 152.772 134.678 153.265 134.078L166.744 137.257Z" fill="#565171"/>
<path opacity="0.1" d="M166.744 137.257C166.717 137.945 166.643 138.72 166.538 139.552C165.35 139.646 162.018 139.735 159.548 138.206C157.218 136.774 153.828 136.288 152.301 136.136C152.451 135.373 152.787 134.659 153.28 134.058L166.744 137.257Z" fill="#1A191F"/>
<path d="M168.379 135.774C167.827 137.331 166.981 139.156 166.981 139.156C166.981 139.156 162.608 139.747 159.532 137.852C156.457 135.957 151.494 135.72 151.494 135.72C152.298 135.225 152.841 133.723 153.179 132.408C153.368 131.665 153.516 130.911 153.622 130.151C153.622 130.151 168.161 133.113 168.767 133.587C168.993 133.774 168.752 134.716 168.379 135.774Z" fill="#E6E6F0"/>
<path d="M194.289 85.8467L176.655 96.5124L174.903 97.5708V92.3605L176.119 91.7768L190.981 84.6599C190.981 84.6599 191.691 71.749 193.583 73.7647C195.474 75.7803 194.289 85.8467 194.289 85.8467Z" fill="#FDC2CC"/>
<path opacity="0.1" d="M176.655 96.5124L174.903 97.5708V92.3605L176.119 91.7769C176.199 93.365 176.378 94.9465 176.655 96.5124Z" fill="#1A191F"/>
<path d="M163.082 98.419L175.73 91.0764C175.73 91.0764 175.967 98.1856 177.385 99.2478C177.385 99.2478 172.185 100.804 170.173 104.104L163.082 98.419Z" fill="#B45181"/>
<path opacity="0.1" d="M163.082 98.419L175.73 91.0764C175.73 91.0764 175.967 98.1856 177.385 99.2478C177.385 99.2478 172.185 100.804 170.173 104.104L163.082 98.419Z" fill="#1A191F"/>
<path d="M194.177 104.68C194.177 104.68 188.161 107.306 184.177 108.271C183.28 108.542 182.343 108.65 181.408 108.591C178.69 108.116 182.119 104.699 182.119 104.699L183.548 104.478L191.221 103.279C191.221 103.279 192.049 91.4344 193.466 92.3839C194.884 93.3333 194.177 104.68 194.177 104.68Z" fill="#FDC2CC"/>
<path d="M168.756 94.0181C168.756 94.0181 163.672 97.8081 165.563 102.548C167.455 107.287 155.75 99.7031 155.75 99.7031C155.75 99.7031 159.532 94.0182 160.36 89.7534C161.187 85.4887 168.756 94.0181 168.756 94.0181Z" fill="#FDC2CC"/>
<path opacity="0.1" d="M168.379 135.774C166.18 134.944 163.882 134.408 161.544 134.179C158.127 133.79 154.997 133.132 153.183 132.408C153.372 131.665 153.519 130.911 153.626 130.151C153.626 130.151 168.165 133.113 168.771 133.587C168.993 133.774 168.752 134.716 168.379 135.774Z" fill="#1A191F"/>
<path opacity="0.1" d="M184.173 108.271C183.276 108.542 182.339 108.65 181.404 108.59C178.686 108.116 182.115 104.699 182.115 104.699L183.544 104.478C184.142 105.4 184.752 106.839 184.173 108.271Z" fill="#1A191F"/>
<path d="M160.48 96.1504C160.48 96.1504 155.87 96.0337 154.216 97.9287C152.562 99.8237 152.915 104.933 152.915 104.933C152.915 104.933 152.569 115.163 155.16 120.887C155.245 121.071 155.255 121.282 155.187 121.474C155.16 121.544 155.16 121.501 155.16 121.501C155.16 121.501 153.505 128.965 151.851 130.268C150.197 131.572 155.397 133.113 161.56 133.821C167.723 134.529 170.189 136.307 170.189 136.307C170.189 136.307 171.253 135.14 171.354 132.517C171.455 129.895 169.711 110.84 169.711 110.84C169.711 110.84 176.212 112.497 180.115 110.485C180.115 110.485 181.889 111.435 183.544 108.828C185.198 106.221 182.379 103.38 182.379 103.38C182.379 103.38 179.777 105.987 172.565 102.551C165.354 99.1155 162.721 96.0337 160.48 96.1504Z" fill="#B45181"/>
<path d="M125.133 165.094H123.715V167.11L125.133 170.308C125.133 170.308 127.024 170.662 127.144 170.662C127.265 170.662 128.799 170.308 128.799 170.308L129.273 169.479C129.273 169.479 124.069 167.46 125.133 165.094Z" fill="#E6E6F0"/>
<path d="M169.583 166.989L167.455 171.728L176.441 176.009L183.536 176.246C183.536 176.246 184.126 174.588 181.761 173.76L179.87 173.405C179.87 173.405 177.389 168.903 177.152 166.791C177.152 166.791 174.787 167.265 174.433 169.04C174.429 169.001 171.121 170.658 169.583 166.989Z" fill="#B45181"/>
<path d="M124.069 164.619L123.346 165.211L120.17 167.818L127.498 177.546C127.498 177.546 131.634 179.324 133.529 177.546C133.529 177.546 134.694 176.378 132.111 175.413C132.111 175.413 130.1 175.767 130.1 173.756C130.1 171.744 130.573 169.612 131.265 169.137C131.265 169.137 129.49 168.545 129.02 169.02C128.659 169.419 128.341 169.856 128.073 170.324C128.073 170.324 123.832 168.647 124.069 164.619Z" fill="#B45181"/>
<path opacity="0.1" d="M160.127 89.9907C160.007 90.5917 159.848 91.1844 159.653 91.7651C160.267 93.2452 161.433 94.4272 162.902 95.0601C164.372 95.6929 166.03 95.7267 167.525 95.1543C167.836 94.8321 168.17 94.5318 168.523 94.2555C168.523 94.2555 160.954 85.726 160.127 89.9907Z" fill="#1A191F"/>
<path opacity="0.1" d="M159.474 105.812C159.474 105.812 163.14 110.668 168.461 110.789Z" fill="#1A191F"/>
<g opacity="0.1">
<path d="M181.385 110.567C181.31 110.546 181.237 110.519 181.167 110.485C181.053 110.545 180.937 110.6 180.818 110.652C181.01 110.648 181.2 110.62 181.385 110.567Z" fill="#1A191F"/>
<path d="M182.643 103.867C182.514 103.701 182.377 103.543 182.231 103.392C182.231 103.392 181.455 104.17 179.536 104.318C180.593 104.423 181.659 104.268 182.643 103.867V103.867Z" fill="#1A191F"/>
<path d="M170.763 110.84L170.787 111.093C172.346 111.382 173.931 111.512 175.517 111.482C173.915 111.423 172.323 111.208 170.763 110.84V110.84Z" fill="#1A191F"/>
<path d="M162.608 133.829C156.461 133.116 151.261 131.579 152.9 130.276C154.538 128.972 156.208 121.509 156.208 121.509C156.208 121.509 156.208 121.552 156.235 121.482C156.303 121.29 156.294 121.079 156.208 120.894C153.618 115.155 153.964 104.941 153.964 104.941C153.964 104.941 153.61 99.847 155.265 97.9365C156.496 96.524 159.365 96.2322 160.752 96.1738C160.623 96.1638 160.493 96.1638 160.364 96.1738C160.364 96.1738 155.754 96.057 154.099 97.952C152.445 99.847 152.799 104.956 152.799 104.956C152.799 104.956 152.453 115.186 155.043 120.91C155.129 121.095 155.138 121.306 155.07 121.497C155.043 121.567 155.043 121.525 155.043 121.525C155.043 121.525 153.4 128.965 151.731 130.268C150.061 131.572 155.276 133.113 161.439 133.821C167.602 134.529 170.068 136.307 170.068 136.307C170.192 136.158 170.301 135.998 170.394 135.829C169.194 135.249 166.725 134.295 162.608 133.829Z" fill="#1A191F"/>
</g>
<path d="M165.563 95.3217C168.959 95.3217 171.711 92.5639 171.711 89.162C171.711 85.7601 168.959 83.0023 165.563 83.0023C162.168 83.0023 159.416 85.7601 159.416 89.162C159.416 92.5639 162.168 95.3217 165.563 95.3217Z" fill="#FDC2CC"/>
<path opacity="0.1" d="M174.313 86.407C173.804 87.6833 172.286 88.1658 170.954 88.4966C169.051 88.9635 167 89.4227 165.179 88.6989C164.943 88.5662 164.671 88.513 164.402 88.5472C164.186 88.6341 164.005 88.7918 163.89 88.9947C161.882 91.8585 162.208 95.6758 161.688 99.1389C161.525 100.217 161.249 101.33 160.523 102.135C159.109 103.692 156.441 103.633 155.14 105.287C154.282 106.376 154.274 107.89 154.282 109.279C154.282 110.76 154.269 112.243 154.243 113.727C154.22 114.7 154.173 115.707 153.734 116.571C152.989 118.034 151.327 118.731 149.793 119.295C148.837 119.653 147.851 120.015 146.826 119.918C145.801 119.82 144.775 119.139 144.643 118.112C144.461 116.719 145.894 115.746 146.88 114.742C148.457 113.143 149.105 110.816 149.164 108.567C149.219 107.659 149.087 106.749 148.775 105.894C148.414 105.011 147.769 104.267 147.381 103.396C146.185 100.711 147.661 97.6058 149.428 95.2555C151.195 92.9053 153.365 90.6134 153.742 87.6989C153.775 87.0682 153.865 86.4418 154.01 85.8273C154.282 84.979 154.927 82.6365 155.637 82.0995C156.775 81.2408 158.111 80.684 159.521 80.4808C160.612 80.3213 161.727 80.3796 162.81 80.1695C164.076 79.9244 165.253 79.3212 166.519 79.0955C169.257 78.6092 172.227 81.796 173.427 84.3097C173.758 85.0801 174.624 85.6249 174.313 86.407Z" fill="#1A191F"/>
<path d="M174.313 86.1697C173.804 87.446 172.286 87.9285 170.954 88.2593C169.051 88.7262 167 89.1854 165.179 88.4616C164.943 88.3289 164.671 88.2757 164.402 88.3099C164.186 88.3968 164.005 88.5545 163.89 88.7573C161.882 91.6212 162.208 95.4385 161.688 98.9016C161.525 99.9794 161.249 101.092 160.523 101.898C159.109 103.454 156.441 103.396 155.14 105.05C154.282 106.139 154.274 107.653 154.282 109.042C154.282 110.523 154.269 112.006 154.243 113.49C154.22 114.462 154.173 115.47 153.734 116.334C152.989 117.797 151.327 118.494 149.793 119.058C148.837 119.416 147.851 119.778 146.826 119.68C145.801 119.583 144.775 118.902 144.643 117.875C144.461 116.482 145.894 115.509 146.88 114.505C148.457 112.906 149.105 110.579 149.164 108.33C149.219 107.422 149.087 106.511 148.775 105.657C148.414 104.773 147.769 104.03 147.381 103.159C146.185 100.474 147.661 97.3685 149.428 95.0182C151.195 92.668 153.365 90.3761 153.742 87.4616C153.775 86.8309 153.865 86.2045 154.01 85.5899C154.282 84.7417 154.927 82.3992 155.637 81.8622C156.775 81.0035 158.111 80.4467 159.521 80.2435C160.612 80.084 161.727 80.1423 162.81 79.9322C164.076 79.687 165.253 79.0839 166.519 78.8582C169.257 78.3718 172.227 81.5587 173.427 84.0724C173.758 84.8428 174.624 85.3876 174.313 86.1697Z" fill="#F569BC"/>
<path d="M194.177 74.3289H296.378V176.725H194.177V74.3289Z" fill="#F7DF1E"/>
<path d="M221.054 159.899L228.875 155.156C230.386 157.837 231.757 160.106 235.05 160.106C238.207 160.106 240.196 158.868 240.196 154.059V121.338H249.8V154.191C249.8 164.156 243.974 168.693 235.462 168.693C227.78 168.693 223.322 164.705 221.058 159.895M255.015 158.864L262.832 154.327C264.891 157.697 267.566 160.164 272.3 160.164C276.281 160.164 278.817 158.172 278.817 155.421C278.817 152.121 276.211 150.954 271.826 149.027L269.427 147.996C262.498 145.043 257.9 141.331 257.9 133.494C257.9 126.276 263.388 120.778 271.962 120.778C278.067 120.778 282.448 122.91 285.613 128.474L278.137 133.288C276.491 130.33 274.708 129.163 271.962 129.163C269.151 129.163 267.364 130.949 267.364 133.288C267.364 136.175 269.147 137.342 273.263 139.124L275.663 140.156C283.819 143.658 288.424 147.234 288.424 155.277C288.424 163.938 281.632 168.682 272.502 168.682C263.57 168.682 257.823 164.401 255.027 158.853" fill="#1A191F"/>
<path d="M165.963 186.791C166.675 186.21 167.194 185.425 167.451 184.542C167.645 183.647 167.264 182.577 166.41 182.25C165.455 181.884 164.433 182.546 163.661 183.219C162.888 183.892 161.998 184.655 160.985 184.511C161.506 184.038 161.896 183.437 162.116 182.768C162.337 182.099 162.38 181.385 162.243 180.694C162.199 180.407 162.078 180.138 161.894 179.915C161.362 179.347 160.402 179.592 159.765 180.04C157.746 181.464 157.183 184.211 157.171 186.686C156.969 185.795 157.14 184.865 157.132 183.962C157.125 183.059 156.876 182.017 156.107 181.542C155.63 181.285 155.095 181.158 154.554 181.172C153.645 181.137 152.635 181.231 152.014 181.896C151.237 182.721 151.443 184.11 152.115 185.009C152.787 185.908 153.804 186.488 154.744 187.118C155.497 187.567 156.14 188.18 156.624 188.912C156.681 189.013 156.727 189.12 156.764 189.231H162.453C163.727 188.58 164.908 187.759 165.963 186.791V186.791Z" fill="#5834EA"/>
<path d="M215.697 241.304C216.602 240.459 217.452 239.463 217.716 238.253C217.98 237.043 217.464 235.587 216.307 235.14C215.013 234.642 213.627 235.529 212.578 236.451C211.53 237.373 210.326 238.397 208.955 238.202C209.661 237.561 210.189 236.747 210.488 235.84C210.787 234.933 210.846 233.964 210.66 233.027C210.6 232.64 210.436 232.277 210.186 231.976C209.468 231.198 208.163 231.537 207.305 232.144C204.586 234.089 203.81 237.798 203.79 241.152C203.515 239.942 203.748 238.681 203.74 237.44C203.732 236.198 203.394 234.825 202.349 234.156C201.699 233.805 200.967 233.633 200.229 233.657C198.998 233.611 197.627 233.735 196.788 234.638C195.744 235.759 196.012 237.638 196.924 238.872C197.837 240.105 199.216 240.879 200.485 241.732C201.505 242.34 202.374 243.172 203.029 244.164C203.107 244.302 203.17 244.448 203.219 244.599H210.936C212.664 243.721 214.265 242.612 215.697 241.304V241.304Z" fill="#5834EA"/>
<path d="M71.5539 193.78C71.5539 193.78 74.8082 198.06 70.051 204.48C65.2937 210.901 61.3637 216.356 62.9598 220.372C62.9598 220.372 70.1364 208.414 75.9771 208.247C81.8178 208.08 77.981 200.971 71.5539 193.78Z" fill="#5834EA"/>
<path opacity="0.1" d="M71.5539 193.78C71.8443 194.191 72.0745 194.642 72.2374 195.118C77.9383 201.827 80.9713 208.087 75.4956 208.247C70.3928 208.395 64.2724 217.535 62.8045 219.847C62.8529 220.025 62.9113 220.2 62.9792 220.372C62.9792 220.372 70.1559 208.414 75.9966 208.247C81.8373 208.08 77.981 200.971 71.5539 193.78Z" fill="#1A191F"/>
<path d="M77.6043 199.216C77.6043 200.718 77.4373 201.94 77.2159 201.94C76.9946 201.94 76.8276 200.722 76.8276 199.216C76.8276 197.71 77.0373 198.437 77.2431 198.437C77.4489 198.437 77.6043 197.714 77.6043 199.216Z" fill="#FFD037"/>
<path d="M79.6818 201.006C78.3653 201.725 77.2197 202.173 77.1226 201.975C77.0256 201.776 78.0081 201.06 79.3246 200.344C80.641 199.628 80.1207 200.15 80.2216 200.344C80.3226 200.539 80.9944 200.286 79.6818 201.006Z" fill="#FFD037"/>
<path d="M54.3734 193.78C54.3734 193.78 51.1191 198.06 55.8763 204.48C60.6335 210.901 64.5558 216.352 62.9675 220.368C62.9675 220.368 55.7909 208.41 49.9501 208.243C44.1094 208.076 47.9385 200.971 54.3734 193.78Z" fill="#5834EA"/>
<path opacity="0.1" d="M54.3734 193.78C54.0898 194.192 53.8662 194.643 53.7093 195.118C48.0084 201.827 44.9754 208.087 50.4511 208.247C55.554 208.395 61.6743 217.535 63.1422 219.847C63.0938 220.025 63.0355 220.2 62.9675 220.372C62.9675 220.372 55.7909 208.414 49.9501 208.247C44.1094 208.08 47.9385 200.971 54.3734 193.78Z" fill="#1A191F"/>
<path d="M48.3153 199.216C48.3153 200.718 48.4823 201.94 48.7036 201.94C48.925 201.94 49.092 200.722 49.092 199.216C49.092 197.71 48.8823 198.437 48.6765 198.437C48.4706 198.437 48.3153 197.714 48.3153 199.216Z" fill="#FFD037"/>
<path d="M46.2376 201.006C47.5541 201.725 48.6997 202.173 48.7968 201.975C48.8939 201.776 47.9113 201.06 46.5949 200.344C45.2784 199.628 45.7987 200.15 45.6978 200.344C45.5968 200.539 44.925 200.286 46.2376 201.006Z" fill="#FFD037"/>
<path d="M49.3521 219.812C49.3521 219.812 58.4511 219.531 61.1928 217.574C63.9345 215.617 75.1733 213.294 75.8684 216.407C76.5635 219.52 89.542 232.014 79.2703 232.096C68.9986 232.178 55.4026 230.493 52.6647 228.823C49.9269 227.154 49.3521 219.812 49.3521 219.812Z" fill="#A8A8A8"/>
<path opacity="0.2" d="M79.4528 231.014C69.1811 231.096 55.5851 229.411 52.8473 227.742C50.7618 226.469 49.9308 221.905 49.6551 219.8H49.3521C49.3521 219.8 49.9269 227.154 52.6647 228.823C55.4026 230.493 68.9986 232.181 79.2703 232.096C82.2373 232.073 83.2586 231.014 83.2042 229.45C82.7926 230.407 81.6625 230.999 79.4528 231.014Z" fill="#1A191F"/>
</g>
<defs>
<clipPath id="clip0_1483_2228">
<rect width="400" height="284" fill="white"/>
</clipPath>
</defs>
</svg>
