<svg width="48" height="48" viewBox="0 0 48 48" fill="none" xmlns="http://www.w3.org/2000/svg">
<path d="M13.3 34.15H34.75C35.0833 34.15 35.3167 34.0167 35.45 33.75C35.5833 33.4833 35.55 33.2167 35.35 32.95L29.5 25.15C29.3333 24.95 29.1333 24.85 28.9 24.85C28.6667 24.85 28.4667 24.95 28.3 25.15L22.3 32.9L18.25 27.35C18.0833 27.15 17.8833 27.05 17.65 27.05C17.4167 27.05 17.2167 27.15 17.05 27.35L12.75 32.95C12.5833 33.2167 12.5583 33.4833 12.675 33.75C12.7917 34.0167 13 34.15 13.3 34.15V34.15ZM9 42C8.2 42 7.5 41.7 6.9 41.1C6.3 40.5 6 39.8 6 39V9C6 8.2 6.3 7.5 6.9 6.9C7.5 6.3 8.2 6 9 6H39C39.8 6 40.5 6.3 41.1 6.9C41.7 7.5 42 8.2 42 9V39C42 39.8 41.7 40.5 41.1 41.1C40.5 41.7 39.8 42 39 42H9Z" fill="#2B2933"/>
</svg>
