<svg width="48" height="48" viewBox="0 0 48 48" fill="none" xmlns="http://www.w3.org/2000/svg">
<path d="M41.1002 45.5L37.5502 42H9.00024C8.16691 42 7.45857 41.7083 6.87524 41.125C6.29191 40.5417 6.00024 39.8333 6.00024 39V10.45L2.95024 7.39999C2.65024 7.09999 2.50857 6.74165 2.52524 6.32499C2.54191 5.90832 2.70024 5.54999 3.00024 5.24999C3.30024 4.94999 3.65024 4.79999 4.05024 4.79999C4.45024 4.79999 4.80024 4.94999 5.10024 5.24999L43.2002 43.4C43.5002 43.7 43.6502 44.05 43.6502 44.45C43.6502 44.85 43.5002 45.2 43.2002 45.5C42.9002 45.8 42.5502 45.95 42.1502 45.95C41.7502 45.95 41.4002 45.8 41.1002 45.5V45.5ZM13.6502 33H28.5502L24.3002 28.7L22.0002 31.45L18.5502 26.75C18.3836 26.55 18.1919 26.45 17.9752 26.45C17.7586 26.45 17.5669 26.5333 17.4002 26.7L13.0502 31.75C12.8502 32.0167 12.8169 32.2917 12.9502 32.575C13.0836 32.8583 13.3169 33 13.6502 33V33ZM42.0002 37.9L10.1002 5.99999H39.0002C39.8336 5.99999 40.5419 6.29165 41.1252 6.87499C41.7086 7.45832 42.0002 8.16665 42.0002 8.99999V37.9Z" fill="#E6404D"/>
</svg>
