<svg width="194" height="24" viewBox="0 0 194 24" fill="none" xmlns="http://www.w3.org/2000/svg">
<g clip-path="url(#clip0_906_1988)">
<path d="M15.9637 12.8749C15.33 12.8749 14.7337 12.5365 14.4112 11.9951L12 7.98723L9.5925 11.9951C9.26625 12.5403 8.67 12.8787 8.03625 12.8787C7.8675 12.8787 7.69875 12.8561 7.5375 12.8073L2.4 11.3334V18.0258C2.4 18.5785 2.775 19.0597 3.3075 19.1913L11.415 21.2254C11.7975 21.3194 12.1987 21.3194 12.5775 21.2254L20.6925 19.1913C21.225 19.056 21.6 18.5747 21.6 18.0258V11.3334L16.4625 12.8035C16.3012 12.8524 16.1325 12.8749 15.9637 12.8749ZM23.9362 8.65647L22.005 4.79143C21.8887 4.55832 21.6375 4.42297 21.3787 4.45681L12 5.65618L15.4387 11.3748C15.5812 11.6116 15.8662 11.7244 16.1325 11.6492L23.5537 9.52497C23.925 9.41594 24.105 9.00237 23.9362 8.65647V8.65647ZM1.995 4.79143L0.0637503 8.65647C-0.10875 9.00237 0.0750003 9.41594 0.4425 9.52121L7.86375 11.6455C8.13 11.7207 8.415 11.6079 8.5575 11.371L12 5.65618L2.6175 4.45681C2.35875 4.42673 2.11125 4.55832 1.995 4.79143V4.79143Z" fill="#5834EA"/>
</g>
<path d="M41.386 15.302H35.857L34.907 18H32.646L37.377 4.776H39.885L44.616 18H42.336L41.386 15.302ZM40.778 13.535L38.631 7.398L36.465 13.535H40.778ZM48.989 3.94V18H46.823V3.94H48.989ZM64.6558 7.36C65.4791 7.36 66.2138 7.531 66.8598 7.873C67.5185 8.215 68.0315 8.72167 68.3988 9.393C68.7788 10.0643 68.9688 10.875 68.9688 11.825V18H66.8218V12.148C66.8218 11.2107 66.5875 10.495 66.1188 10.001C65.6501 9.49433 65.0105 9.241 64.1998 9.241C63.3891 9.241 62.7431 9.49433 62.2618 10.001C61.7931 10.495 61.5588 11.2107 61.5588 12.148V18H59.4118V12.148C59.4118 11.2107 59.1775 10.495 58.7088 10.001C58.2401 9.49433 57.6005 9.241 56.7898 9.241C55.9791 9.241 55.3331 9.49433 54.8518 10.001C54.3831 10.495 54.1488 11.2107 54.1488 12.148V18H51.9828V7.531H54.1488V8.728C54.5035 8.29733 54.9531 7.96167 55.4978 7.721C56.0425 7.48033 56.6251 7.36 57.2458 7.36C58.0818 7.36 58.8291 7.53733 59.4878 7.892C60.1465 8.24667 60.6531 8.75967 61.0078 9.431C61.3245 8.79767 61.8185 8.29733 62.4898 7.93C63.1611 7.55 63.8831 7.36 64.6558 7.36ZM76.416 18.171C75.428 18.171 74.535 17.9493 73.737 17.506C72.939 17.05 72.312 16.4167 71.856 15.606C71.4 14.7827 71.172 13.8327 71.172 12.756C71.172 11.692 71.4063 10.7483 71.875 9.925C72.3437 9.10167 72.9833 8.46833 73.794 8.025C74.6047 7.58167 75.5103 7.36 76.511 7.36C77.5117 7.36 78.4173 7.58167 79.228 8.025C80.0387 8.46833 80.6783 9.10167 81.147 9.925C81.6157 10.7483 81.85 11.692 81.85 12.756C81.85 13.82 81.6093 14.7637 81.128 15.587C80.6467 16.4103 79.988 17.05 79.152 17.506C78.3287 17.9493 77.4167 18.171 76.416 18.171ZM76.416 16.29C76.9733 16.29 77.4927 16.157 77.974 15.891C78.468 15.625 78.867 15.226 79.171 14.694C79.475 14.162 79.627 13.516 79.627 12.756C79.627 11.996 79.4813 11.3563 79.19 10.837C78.8987 10.305 78.5123 9.906 78.031 9.64C77.5497 9.374 77.0303 9.241 76.473 9.241C75.9157 9.241 75.3963 9.374 74.915 9.64C74.4463 9.906 74.0727 10.305 73.794 10.837C73.5153 11.3563 73.376 11.996 73.376 12.756C73.376 13.8833 73.661 14.7573 74.231 15.378C74.8137 15.986 75.542 16.29 76.416 16.29ZM88.6252 12.699L92.0072 18H89.5562L87.2952 14.447L85.1672 18H82.9062L86.2882 12.851L82.9062 7.531H85.3572L87.6182 11.084L89.7462 7.531H92.0072L88.6252 12.699ZM98.1362 11.369C98.1362 10.077 98.4339 8.918 99.0292 7.892C99.6372 6.866 100.454 6.068 101.48 5.498C102.519 4.91533 103.653 4.624 104.881 4.624C106.287 4.624 107.535 4.97233 108.624 5.669C109.726 6.353 110.524 7.32833 111.018 8.595H108.415C108.073 7.89833 107.598 7.379 106.99 7.037C106.382 6.695 105.679 6.524 104.881 6.524C104.007 6.524 103.228 6.72033 102.544 7.113C101.86 7.50567 101.322 8.06933 100.929 8.804C100.549 9.53867 100.359 10.3937 100.359 11.369C100.359 12.3443 100.549 13.1993 100.929 13.934C101.322 14.6687 101.86 15.2387 102.544 15.644C103.228 16.0367 104.007 16.233 104.881 16.233C105.679 16.233 106.382 16.062 106.99 15.72C107.598 15.378 108.073 14.8587 108.415 14.162H111.018C110.524 15.4287 109.726 16.404 108.624 17.088C107.535 17.772 106.287 18.114 104.881 18.114C103.64 18.114 102.506 17.829 101.48 17.259C100.454 16.6763 99.6372 15.872 99.0292 14.846C98.4339 13.82 98.1362 12.661 98.1362 11.369ZM118.245 18.171C117.257 18.171 116.364 17.9493 115.566 17.506C114.768 17.05 114.141 16.4167 113.685 15.606C113.229 14.7827 113.001 13.8327 113.001 12.756C113.001 11.692 113.235 10.7483 113.704 9.925C114.172 9.10167 114.812 8.46833 115.623 8.025C116.433 7.58167 117.339 7.36 118.34 7.36C119.34 7.36 120.246 7.58167 121.057 8.025C121.867 8.46833 122.507 9.10167 122.976 9.925C123.444 10.7483 123.679 11.692 123.679 12.756C123.679 13.82 123.438 14.7637 122.957 15.587C122.475 16.4103 121.817 17.05 120.981 17.506C120.157 17.9493 119.245 18.171 118.245 18.171ZM118.245 16.29C118.802 16.29 119.321 16.157 119.803 15.891C120.297 15.625 120.696 15.226 121 14.694C121.304 14.162 121.456 13.516 121.456 12.756C121.456 11.996 121.31 11.3563 121.019 10.837C120.727 10.305 120.341 9.906 119.86 9.64C119.378 9.374 118.859 9.241 118.302 9.241C117.744 9.241 117.225 9.374 116.744 9.64C116.275 9.906 115.901 10.305 115.623 10.837C115.344 11.3563 115.205 11.996 115.205 12.756C115.205 13.8833 115.49 14.7573 116.06 15.378C116.642 15.986 117.371 16.29 118.245 16.29ZM131.252 7.36C132.075 7.36 132.81 7.531 133.456 7.873C134.114 8.215 134.627 8.72167 134.995 9.393C135.362 10.0643 135.546 10.875 135.546 11.825V18H133.399V12.148C133.399 11.2107 133.164 10.495 132.696 10.001C132.227 9.49433 131.587 9.241 130.777 9.241C129.966 9.241 129.32 9.49433 128.839 10.001C128.37 10.495 128.136 11.2107 128.136 12.148V18H125.97V7.531H128.136V8.728C128.49 8.29733 128.94 7.96167 129.485 7.721C130.042 7.48033 130.631 7.36 131.252 7.36ZM140.986 9.298V15.093C140.986 15.4857 141.074 15.7707 141.252 15.948C141.442 16.1127 141.758 16.195 142.202 16.195H143.532V18H141.822C140.846 18 140.099 17.772 139.58 17.316C139.06 16.86 138.801 16.119 138.801 15.093V9.298H137.566V7.531H138.801V4.928H140.986V7.531H143.532V9.298H140.986ZM147.844 9.051C148.161 8.519 148.579 8.10733 149.098 7.816C149.63 7.512 150.257 7.36 150.979 7.36V9.602H150.428C149.579 9.602 148.933 9.81733 148.49 10.248C148.059 10.6787 147.844 11.426 147.844 12.49V18H145.678V7.531H147.844V9.051ZM157.661 18.171C156.673 18.171 155.78 17.9493 154.982 17.506C154.184 17.05 153.557 16.4167 153.101 15.606C152.645 14.7827 152.417 13.8327 152.417 12.756C152.417 11.692 152.651 10.7483 153.12 9.925C153.589 9.10167 154.228 8.46833 155.039 8.025C155.85 7.58167 156.755 7.36 157.756 7.36C158.757 7.36 159.662 7.58167 160.473 8.025C161.284 8.46833 161.923 9.10167 162.392 9.925C162.861 10.7483 163.095 11.692 163.095 12.756C163.095 13.82 162.854 14.7637 162.373 15.587C161.892 16.4103 161.233 17.05 160.397 17.506C159.574 17.9493 158.662 18.171 157.661 18.171ZM157.661 16.29C158.218 16.29 158.738 16.157 159.219 15.891C159.713 15.625 160.112 15.226 160.416 14.694C160.72 14.162 160.872 13.516 160.872 12.756C160.872 11.996 160.726 11.3563 160.435 10.837C160.144 10.305 159.757 9.906 159.276 9.64C158.795 9.374 158.275 9.241 157.718 9.241C157.161 9.241 156.641 9.374 156.16 9.64C155.691 9.906 155.318 10.305 155.039 10.837C154.76 11.3563 154.621 11.996 154.621 12.756C154.621 13.8833 154.906 14.7573 155.476 15.378C156.059 15.986 156.787 16.29 157.661 16.29ZM167.552 3.94V18H165.386V3.94H167.552ZM172.712 3.94V18H170.546V3.94H172.712ZM185.301 12.509C185.301 12.9017 185.275 13.2563 185.225 13.573H177.226C177.289 14.409 177.599 15.0803 178.157 15.587C178.714 16.0937 179.398 16.347 180.209 16.347C181.374 16.347 182.197 15.8593 182.679 14.884H185.016C184.699 15.8467 184.123 16.6383 183.287 17.259C182.463 17.867 181.437 18.171 180.209 18.171C179.208 18.171 178.309 17.9493 177.511 17.506C176.725 17.05 176.105 16.4167 175.649 15.606C175.205 14.7827 174.984 13.8327 174.984 12.756C174.984 11.6793 175.199 10.7357 175.63 9.925C176.073 9.10167 176.687 8.46833 177.473 8.025C178.271 7.58167 179.183 7.36 180.209 7.36C181.197 7.36 182.077 7.57533 182.85 8.006C183.622 8.43667 184.224 9.04467 184.655 9.83C185.085 10.6027 185.301 11.4957 185.301 12.509ZM183.04 11.825C183.027 11.027 182.742 10.3873 182.185 9.906C181.627 9.42467 180.937 9.184 180.114 9.184C179.366 9.184 178.727 9.42467 178.195 9.906C177.663 10.3747 177.346 11.0143 177.245 11.825H183.04ZM189.748 9.051C190.065 8.519 190.483 8.10733 191.002 7.816C191.534 7.512 192.161 7.36 192.883 7.36V9.602H192.332C191.484 9.602 190.838 9.81733 190.394 10.248C189.964 10.6787 189.748 11.426 189.748 12.49V18H187.582V7.531H189.748V9.051Z" fill="#231E38"/>
<defs>
<clipPath id="clip0_906_1988">
<rect width="24" height="19.25" fill="white" transform="translate(0 3.25)"/>
</clipPath>
</defs>
</svg>
