<svg width="206" height="28" viewBox="0 0 206 28" fill="none" xmlns="http://www.w3.org/2000/svg">
<g clip-path="url(#clip0_1216_1715)">
<path d="M15.9639 14.875C15.3301 14.875 14.7339 14.5366 14.4114 13.9952L12.0001 9.98731L9.59262 13.9952C9.26637 14.5404 8.67012 14.8788 8.03637 14.8788C7.86762 14.8788 7.69887 14.8562 7.53762 14.8073L2.40012 13.3335V20.0259C2.40012 20.5786 2.77512 21.0598 3.30762 21.1914L11.4151 23.2254C11.7976 23.3194 12.1989 23.3194 12.5776 23.2254L20.6926 21.1914C21.2251 21.0561 21.6001 20.5748 21.6001 20.0259V13.3335L16.4626 14.8036C16.3014 14.8524 16.1326 14.875 15.9639 14.875ZM23.9364 10.6565L22.0051 6.79151C21.8889 6.5584 21.6376 6.42305 21.3789 6.45689L12.0001 7.65625L15.4389 13.3749C15.5814 13.6117 15.8664 13.7245 16.1326 13.6493L23.5539 11.5251C23.9251 11.416 24.1051 11.0024 23.9364 10.6565V10.6565ZM1.99512 6.79151L0.0638724 10.6565C-0.108628 11.0024 0.0751224 11.416 0.442622 11.5213L7.86387 13.6456C8.13012 13.7208 8.41512 13.608 8.55762 13.3711L12.0001 7.65625L2.61762 6.45689C2.35887 6.42681 2.11137 6.5584 1.99512 6.79151V6.79151Z" fill="#5834EA"/>
</g>
<path d="M45.88 18.16H40.06L39.06 21H36.68L41.66 7.08H44.3L49.28 21H46.88L45.88 18.16ZM45.24 16.3L42.98 9.84L40.7 16.3H45.24ZM53.8753 6.2V21H51.5953V6.2H53.8753ZM70.3588 9.8C71.2254 9.8 71.9988 9.98 72.6788 10.34C73.3721 10.7 73.9121 11.2333 74.2988 11.94C74.6988 12.6467 74.8988 13.5 74.8988 14.5V21H72.6388V14.84C72.6388 13.8533 72.3921 13.1 71.8988 12.58C71.4054 12.0467 70.7321 11.78 69.8788 11.78C69.0254 11.78 68.3454 12.0467 67.8388 12.58C67.3454 13.1 67.0988 13.8533 67.0988 14.84V21H64.8387V14.84C64.8387 13.8533 64.5921 13.1 64.0987 12.58C63.6054 12.0467 62.9321 11.78 62.0787 11.78C61.2254 11.78 60.5454 12.0467 60.0387 12.58C59.5454 13.1 59.2987 13.8533 59.2987 14.84V21H57.0187V9.98H59.2987V11.24C59.6721 10.7867 60.1454 10.4333 60.7187 10.18C61.2921 9.92667 61.9054 9.8 62.5587 9.8C63.4387 9.8 64.2254 9.98667 64.9187 10.36C65.6121 10.7333 66.1454 11.2733 66.5187 11.98C66.8521 11.3133 67.3721 10.7867 68.0787 10.4C68.7854 10 69.5454 9.8 70.3588 9.8ZM82.73 21.18C81.69 21.18 80.75 20.9467 79.91 20.48C79.07 20 78.41 19.3333 77.93 18.48C77.45 17.6133 77.21 16.6133 77.21 15.48C77.21 14.36 77.4567 13.3667 77.95 12.5C78.4433 11.6333 79.1167 10.9667 79.97 10.5C80.8233 10.0333 81.7767 9.8 82.83 9.8C83.8833 9.8 84.8367 10.0333 85.69 10.5C86.5433 10.9667 87.2167 11.6333 87.71 12.5C88.2033 13.3667 88.45 14.36 88.45 15.48C88.45 16.6 88.1967 17.5933 87.69 18.46C87.1833 19.3267 86.49 20 85.61 20.48C84.7433 20.9467 83.7833 21.18 82.73 21.18ZM82.73 19.2C83.3167 19.2 83.8633 19.06 84.37 18.78C84.89 18.5 85.31 18.08 85.63 17.52C85.95 16.96 86.11 16.28 86.11 15.48C86.11 14.68 85.9567 14.0067 85.65 13.46C85.3433 12.9 84.9367 12.48 84.43 12.2C83.9233 11.92 83.3767 11.78 82.79 11.78C82.2033 11.78 81.6567 11.92 81.15 12.2C80.6567 12.48 80.2633 12.9 79.97 13.46C79.6767 14.0067 79.53 14.68 79.53 15.48C79.53 16.6667 79.83 17.5867 80.43 18.24C81.0433 18.88 81.81 19.2 82.73 19.2ZM95.5739 15.42L99.1339 21H96.5539L94.1739 17.26L91.9339 21H89.5539L93.1139 15.58L89.5539 9.98H92.1339L94.5139 13.72L96.7539 9.98H99.1339L95.5739 15.42ZM105.57 14.02C105.57 12.66 105.883 11.44 106.51 10.36C107.15 9.28 108.01 8.44 109.09 7.84C110.183 7.22667 111.376 6.92 112.67 6.92C114.15 6.92 115.463 7.28667 116.61 8.02C117.77 8.74 118.61 9.76667 119.13 11.1H116.39C116.03 10.3667 115.53 9.82 114.89 9.46C114.25 9.1 113.51 8.92 112.67 8.92C111.75 8.92 110.93 9.12667 110.21 9.54C109.49 9.95333 108.923 10.5467 108.51 11.32C108.11 12.0933 107.91 12.9933 107.91 14.02C107.91 15.0467 108.11 15.9467 108.51 16.72C108.923 17.4933 109.49 18.0933 110.21 18.52C110.93 18.9333 111.75 19.14 112.67 19.14C113.51 19.14 114.25 18.96 114.89 18.6C115.53 18.24 116.03 17.6933 116.39 16.96H119.13C118.61 18.2933 117.77 19.32 116.61 20.04C115.463 20.76 114.15 21.12 112.67 21.12C111.363 21.12 110.17 20.82 109.09 20.22C108.01 19.6067 107.15 18.76 106.51 17.68C105.883 16.6 105.57 15.38 105.57 14.02ZM126.728 21.18C125.688 21.18 124.748 20.9467 123.908 20.48C123.068 20 122.408 19.3333 121.928 18.48C121.448 17.6133 121.208 16.6133 121.208 15.48C121.208 14.36 121.455 13.3667 121.948 12.5C122.442 11.6333 123.115 10.9667 123.968 10.5C124.822 10.0333 125.775 9.8 126.828 9.8C127.882 9.8 128.835 10.0333 129.688 10.5C130.542 10.9667 131.215 11.6333 131.708 12.5C132.202 13.3667 132.448 14.36 132.448 15.48C132.448 16.6 132.195 17.5933 131.688 18.46C131.182 19.3267 130.488 20 129.608 20.48C128.742 20.9467 127.782 21.18 126.728 21.18ZM126.728 19.2C127.315 19.2 127.862 19.06 128.368 18.78C128.888 18.5 129.308 18.08 129.628 17.52C129.948 16.96 130.108 16.28 130.108 15.48C130.108 14.68 129.955 14.0067 129.648 13.46C129.342 12.9 128.935 12.48 128.428 12.2C127.922 11.92 127.375 11.78 126.788 11.78C126.202 11.78 125.655 11.92 125.148 12.2C124.655 12.48 124.262 12.9 123.968 13.46C123.675 14.0067 123.528 14.68 123.528 15.48C123.528 16.6667 123.828 17.5867 124.428 18.24C125.042 18.88 125.808 19.2 126.728 19.2ZM140.412 9.8C141.279 9.8 142.052 9.98 142.732 10.34C143.426 10.7 143.966 11.2333 144.352 11.94C144.739 12.6467 144.932 13.5 144.932 14.5V21H142.672V14.84C142.672 13.8533 142.426 13.1 141.932 12.58C141.439 12.0467 140.766 11.78 139.912 11.78C139.059 11.78 138.379 12.0467 137.872 12.58C137.379 13.1 137.132 13.8533 137.132 14.84V21H134.852V9.98H137.132V11.24C137.506 10.7867 137.979 10.4333 138.552 10.18C139.139 9.92667 139.759 9.8 140.412 9.8ZM150.651 11.84V17.94C150.651 18.3533 150.744 18.6533 150.931 18.84C151.131 19.0133 151.464 19.1 151.931 19.1H153.331V21H151.531C150.504 21 149.717 20.76 149.171 20.28C148.624 19.8 148.351 19.02 148.351 17.94V11.84H147.051V9.98H148.351V7.24H150.651V9.98H153.331V11.84H150.651ZM157.862 11.58C158.195 11.02 158.635 10.5867 159.182 10.28C159.742 9.96 160.402 9.8 161.162 9.8V12.16H160.582C159.689 12.16 159.009 12.3867 158.542 12.84C158.089 13.2933 157.862 14.08 157.862 15.2V21H155.582V9.98H157.862V11.58ZM168.188 21.18C167.148 21.18 166.208 20.9467 165.368 20.48C164.528 20 163.868 19.3333 163.388 18.48C162.908 17.6133 162.668 16.6133 162.668 15.48C162.668 14.36 162.914 13.3667 163.408 12.5C163.901 11.6333 164.574 10.9667 165.428 10.5C166.281 10.0333 167.234 9.8 168.288 9.8C169.341 9.8 170.294 10.0333 171.148 10.5C172.001 10.9667 172.674 11.6333 173.168 12.5C173.661 13.3667 173.908 14.36 173.908 15.48C173.908 16.6 173.654 17.5933 173.148 18.46C172.641 19.3267 171.948 20 171.068 20.48C170.201 20.9467 169.241 21.18 168.188 21.18ZM168.188 19.2C168.774 19.2 169.321 19.06 169.828 18.78C170.348 18.5 170.768 18.08 171.088 17.52C171.408 16.96 171.568 16.28 171.568 15.48C171.568 14.68 171.414 14.0067 171.108 13.46C170.801 12.9 170.394 12.48 169.888 12.2C169.381 11.92 168.834 11.78 168.248 11.78C167.661 11.78 167.114 11.92 166.608 12.2C166.114 12.48 165.721 12.9 165.428 13.46C165.134 14.0067 164.988 14.68 164.988 15.48C164.988 16.6667 165.288 17.5867 165.888 18.24C166.501 18.88 167.268 19.2 168.188 19.2ZM178.592 6.2V21H176.312V6.2H178.592ZM184.015 6.2V21H181.735V6.2H184.015ZM197.259 15.22C197.259 15.6333 197.232 16.0067 197.179 16.34H188.759C188.825 17.22 189.152 17.9267 189.739 18.46C190.325 18.9933 191.045 19.26 191.899 19.26C193.125 19.26 193.992 18.7467 194.499 17.72H196.959C196.625 18.7333 196.019 19.5667 195.139 20.22C194.272 20.86 193.192 21.18 191.899 21.18C190.845 21.18 189.899 20.9467 189.059 20.48C188.232 20 187.579 19.3333 187.099 18.48C186.632 17.6133 186.399 16.6133 186.399 15.48C186.399 14.3467 186.625 13.3533 187.079 12.5C187.545 11.6333 188.192 10.9667 189.019 10.5C189.859 10.0333 190.819 9.8 191.899 9.8C192.939 9.8 193.865 10.0267 194.679 10.48C195.492 10.9333 196.125 11.5733 196.579 12.4C197.032 13.2133 197.259 14.1533 197.259 15.22ZM194.879 14.5C194.865 13.66 194.565 12.9867 193.979 12.48C193.392 11.9733 192.665 11.72 191.799 11.72C191.012 11.72 190.339 11.9733 189.779 12.48C189.219 12.9733 188.885 13.6467 188.779 14.5H194.879ZM201.932 11.58C202.266 11.02 202.706 10.5867 203.252 10.28C203.812 9.96 204.472 9.8 205.232 9.8V12.16H204.652C203.759 12.16 203.079 12.3867 202.612 12.84C202.159 13.2933 201.932 14.08 201.932 15.2V21H199.652V9.98H201.932V11.58Z" fill="white"/>
<defs>
<clipPath id="clip0_1216_1715">
<rect width="24" height="19.25" fill="white" transform="translate(0 5.25)"/>
</clipPath>
</defs>
</svg>
