<svg width="48" height="48" viewBox="0 0 48 48" fill="none" xmlns="http://www.w3.org/2000/svg">
<g clip-path="url(#clip0_1231_2015)">
<path d="M31.9277 24.1579C30.6602 24.1579 29.4677 23.4751 28.8227 22.3827L24.0002 14.2957L19.1852 22.3827C18.5327 23.4827 17.3402 24.1655 16.0727 24.1655C15.7352 24.1655 15.3977 24.12 15.0752 24.0213L4.80024 21.0475V34.5512C4.80024 35.6664 5.55024 36.6374 6.61524 36.903L22.8302 41.0072C23.5952 41.1968 24.3977 41.1968 25.1552 41.0072L41.3852 36.903C42.4502 36.6299 43.2002 35.6588 43.2002 34.5512V21.0475L32.9252 24.0138C32.6027 24.1124 32.2652 24.1579 31.9277 24.1579ZM47.8727 15.646L44.0102 7.84726C43.7777 7.3769 43.2752 7.1038 42.7577 7.17207L24.0002 9.59212L30.8777 21.131C31.1627 21.6089 31.7327 21.8365 32.2652 21.6848L47.1077 17.3985C47.8502 17.1785 48.2102 16.344 47.8727 15.646ZM3.99024 7.84726L0.127745 15.646C-0.217255 16.344 0.150245 17.1785 0.885245 17.3909L15.7277 21.6772C16.2602 21.8289 16.8302 21.6013 17.1152 21.1234L24.0002 9.59212L5.23524 7.17207C4.71774 7.11138 4.22274 7.3769 3.99024 7.84726Z" fill="#5834EA"/>
</g>
<defs>
<clipPath id="clip0_1231_2015">
<rect width="48" height="38.8421" fill="white" transform="translate(0 4.73688)"/>
</clipPath>
</defs>
</svg>
