<svg width="344" height="257" viewBox="0 0 344 257" fill="none" xmlns="http://www.w3.org/2000/svg">
<path d="M329.145 238.597H70.2249C66.2864 238.593 62.5105 237.031 59.7256 234.254C56.9406 231.477 55.3741 227.712 55.3696 223.785V85.9863C55.3741 82.0592 56.9406 78.2942 59.7256 75.5174C62.5105 72.7405 66.2864 71.1785 70.2249 71.1741H329.145C333.083 71.1785 336.859 72.7405 339.644 75.5174C342.429 78.2942 343.995 82.0592 344 85.9863V223.785C343.995 227.712 342.429 231.477 339.644 234.254C336.859 237.031 333.083 238.593 329.145 238.597Z" fill="white"/>
<path d="M329.145 238.597H70.2249C66.2864 238.593 62.5105 237.031 59.7256 234.254C56.9406 231.477 55.3741 227.712 55.3696 223.785V85.9863C55.3741 82.0592 56.9406 78.2942 59.7256 75.5174C62.5105 72.7405 66.2864 71.1785 70.2249 71.1741H329.145C333.083 71.1785 336.859 72.7405 339.644 75.5174C342.429 78.2942 343.995 82.0592 344 85.9863V223.785C343.995 227.712 342.429 231.477 339.644 234.254C336.859 237.031 333.083 238.593 329.145 238.597ZM70.2249 72.0718C66.5251 72.076 62.978 73.5433 60.3619 76.1519C57.7457 78.7604 56.2741 82.2972 56.2699 85.9863V223.785C56.2741 227.474 57.7457 231.011 60.3619 233.619C62.978 236.228 66.5251 237.695 70.2249 237.699H329.145C332.844 237.695 336.392 236.228 339.008 233.619C341.624 231.011 343.095 227.474 343.1 223.785V85.9863C343.095 82.2972 341.624 78.7604 339.008 76.1519C336.392 73.5433 332.844 72.076 329.145 72.0718H70.2249Z" fill="#F2F2F2"/>
<path d="M329.144 227.824H70.2248C69.1506 227.823 68.1209 227.397 67.3613 226.64C66.6018 225.883 66.1746 224.856 66.1733 223.785V85.9862C66.1746 84.9152 66.6018 83.8884 67.3613 83.1311C68.1209 82.3738 69.1506 81.9478 70.2248 81.9465H329.144C330.219 81.9478 331.248 82.3738 332.008 83.1311C332.767 83.8884 333.195 84.9152 333.196 85.9862V223.785C333.195 224.856 332.767 225.883 332.008 226.64C331.248 227.397 330.219 227.823 329.144 227.824ZM70.2248 82.8442C69.3893 82.8452 68.5884 83.1765 67.9976 83.7655C67.4069 84.3546 67.0746 85.1532 67.0737 85.9862V223.785C67.0746 224.618 67.4069 225.416 67.9976 226.005C68.5884 226.594 69.3893 226.926 70.2248 226.927H329.144C329.98 226.926 330.781 226.594 331.372 226.005C331.962 225.416 332.295 224.618 332.296 223.785V85.9862C332.295 85.1532 331.962 84.3546 331.372 83.7655C330.781 83.1765 329.98 82.8452 329.144 82.8442H70.2248Z" fill="#F2F2F2"/>
<path d="M263.247 228.481L12.971 162.33C9.1651 161.319 5.91664 158.845 3.93826 155.449C1.95988 152.053 1.41315 148.014 2.41803 144.217L37.829 11.0185C38.8425 7.2237 41.3242 3.98465 44.7298 2.01201C48.1354 0.039368 52.1866 -0.50577 55.9948 0.496193L306.271 66.6473C310.077 67.6579 313.325 70.1324 315.303 73.5281C317.282 76.9238 317.828 80.9633 316.824 84.7604L281.413 217.959C280.399 221.753 277.917 224.992 274.512 226.965C271.106 228.938 267.055 229.483 263.247 228.481Z" fill="#F2F2F2"/>
<path d="M263.247 228.481L12.971 162.33C9.1651 161.319 5.91664 158.845 3.93826 155.449C1.95988 152.053 1.41315 148.014 2.41803 144.217L37.829 11.0185C38.8425 7.2237 41.3242 3.98465 44.7298 2.01201C48.1354 0.039368 52.1866 -0.50577 55.9948 0.496193L306.271 66.6473C310.077 67.6579 313.325 70.1324 315.303 73.5281C317.282 76.9238 317.828 80.9633 316.824 84.7604L281.413 217.959C280.399 221.753 277.917 224.992 274.512 226.965C271.106 228.938 267.055 229.483 263.247 228.481ZM55.7641 1.36393C52.1867 0.422713 48.381 0.934819 45.1818 2.7879C41.9827 4.64099 39.6513 7.68372 38.6993 11.2486L3.2883 144.447C2.34435 148.014 2.85794 151.808 4.71642 154.998C6.57489 158.188 9.62646 160.513 13.2017 161.462L263.478 227.613C267.055 228.554 270.861 228.042 274.06 226.189C277.259 224.336 279.59 221.293 280.542 217.729L315.953 84.5304C316.897 80.9634 316.384 77.1687 314.525 73.9788C312.667 70.789 309.615 68.4644 306.04 67.5151L55.7641 1.36393Z" fill="#E6E6E6"/>
<path d="M266.015 218.068L15.7389 151.917C14.7009 151.641 13.815 150.966 13.2754 150.04C12.7359 149.114 12.5868 148.013 12.8608 146.977L48.2718 13.7789C48.5482 12.7439 49.225 11.8605 50.1538 11.3225C51.0826 10.7845 52.1875 10.6359 53.2261 10.9091L303.502 77.0603C304.54 77.3359 305.426 78.0107 305.965 78.9368C306.505 79.8629 306.654 80.9646 306.38 82.0002L270.969 215.198C270.693 216.233 270.016 217.117 269.087 217.655C268.158 218.193 267.053 218.341 266.015 218.068ZM52.9954 11.7769C52.1876 11.5643 51.3282 11.6799 50.6058 12.0984C49.8835 12.5168 49.357 13.2039 49.1421 14.0089L13.7311 147.207C13.5179 148.012 13.6339 148.869 14.0535 149.59C14.4732 150.31 15.1623 150.835 15.9696 151.049L266.245 217.2C267.053 217.413 267.913 217.297 268.635 216.879C269.357 216.46 269.884 215.773 270.099 214.968L305.51 81.7702C305.723 80.9647 305.607 80.1079 305.187 79.3876C304.768 78.6673 304.079 78.1423 303.271 77.928L52.9954 11.7769Z" fill="white"/>
<path d="M273.775 257H14.8553C10.9168 256.996 7.14087 255.434 4.35592 252.657C1.57098 249.88 0.00444893 246.115 0 242.188V104.389C0.00444893 100.462 1.57098 96.6973 4.35592 93.9204C7.14087 91.1436 10.9168 89.5816 14.8553 89.5771H273.775C277.714 89.5816 281.49 91.1436 284.274 93.9204C287.059 96.6973 288.626 100.462 288.63 104.389V242.188C288.626 246.115 287.059 249.88 284.274 252.657C281.49 255.434 277.714 256.996 273.775 257Z" fill="white"/>
<path d="M203.429 245.33H36.2264C36.017 245.331 35.8079 245.325 35.6016 245.314L114.681 200.907C116.187 200.044 119.565 199.74 122.226 200.228C122.956 200.34 123.663 200.569 124.319 200.907L177.391 230.707L179.934 232.133L203.429 245.33Z" fill="#E6E6E6"/>
<path d="M256.18 245.33H111.563L139.587 232.133L141.604 231.183L178.121 213.985C180.515 212.858 186.275 212.788 189.09 213.772C189.279 213.84 189.454 213.91 189.615 213.985L256.18 245.33Z" fill="#E6E6E6"/>
<path d="M14.8553 90.4749C11.1556 90.479 7.60849 91.9464 4.99234 94.5549C2.37618 97.1635 0.904586 100.7 0.900391 104.389V242.188C0.904586 245.877 2.37618 249.414 4.99234 252.022C7.60849 254.631 11.1556 256.098 14.8553 256.102H273.775C277.475 256.098 281.022 254.631 283.638 252.022C286.254 249.414 287.726 245.877 287.73 242.188V104.389C287.726 100.7 286.254 97.1635 283.638 94.5549C281.022 91.9464 277.475 90.479 273.775 90.4749H14.8553Z" fill="#3F3D56"/>
<path d="M273.775 246.228H14.8552C13.781 246.226 12.7512 245.8 11.9917 245.043C11.2322 244.286 10.8049 243.259 10.8037 242.188V104.389C10.8049 103.318 11.2322 102.291 11.9917 101.534C12.7512 100.777 13.781 100.351 14.8552 100.35H273.775C274.849 100.351 275.879 100.777 276.638 101.534C277.398 102.291 277.825 103.318 277.826 104.389V242.188C277.825 243.259 277.398 244.286 276.638 245.043C275.879 245.8 274.849 246.226 273.775 246.228ZM14.8552 101.247C14.0197 101.248 13.2188 101.58 12.628 102.169C12.0373 102.758 11.705 103.556 11.704 104.389V242.188C11.705 243.021 12.0373 243.819 12.628 244.409C13.2188 244.998 14.0197 245.329 14.8552 245.33H273.775C274.61 245.329 275.411 244.998 276.002 244.409C276.593 243.819 276.925 243.021 276.926 242.188V104.389C276.925 103.556 276.593 102.758 276.002 102.169C275.411 101.58 274.61 101.248 273.775 101.247H14.8552Z" fill="#CCCCCC"/>
<path d="M216.085 125.573C231.475 125.573 243.951 113.132 243.951 97.787C243.951 82.4415 231.475 70.0015 216.085 70.0015C200.694 70.0015 188.218 82.4415 188.218 97.787C188.218 113.132 200.694 125.573 216.085 125.573Z" fill="#FF6584"/>
<path d="M227.734 198.949C247.227 198.949 263.028 179.227 263.028 154.899C263.028 130.572 247.227 110.85 227.734 110.85C208.242 110.85 192.44 130.572 192.44 154.899C192.44 179.227 208.242 198.949 227.734 198.949Z" fill="#F2F2F2"/>
<path d="M227.831 146.042H227.928L229.673 245.815H225.989L227.831 146.042Z" fill="#CCCCCC"/>
<path d="M233.851 212.095C233.959 212.299 233.981 212.538 233.912 212.758C233.844 212.979 233.69 213.163 233.485 213.27L228.423 215.928L227.61 214.388L232.672 211.731C232.877 211.623 233.116 211.601 233.337 211.669C233.559 211.738 233.743 211.891 233.851 212.095Z" fill="#CCCCCC"/>
<path d="M126.265 198.949C145.757 198.949 161.559 179.227 161.559 154.899C161.559 130.572 145.757 110.85 126.265 110.85C106.773 110.85 90.9712 130.572 90.9712 154.899C90.9712 179.227 106.773 198.949 126.265 198.949Z" fill="#F2F2F2"/>
<path d="M132.382 213.745V213.745C132.274 213.54 132.089 213.387 131.868 213.319C131.647 213.251 131.408 213.273 131.203 213.38L127.669 215.235L126.459 146.042H126.362L124.52 245.816H128.204L127.704 217.184L132.016 214.92C132.221 214.812 132.375 214.628 132.443 214.408C132.512 214.187 132.49 213.949 132.382 213.745Z" fill="#CCCCCC"/>
<path d="M176.877 53.3854C201.576 53.3854 221.651 99.789 221.651 130.615C221.651 161.441 201.629 186.43 176.93 186.43C152.231 186.43 132.208 161.441 132.208 130.615C132.208 99.7891 152.178 53.3854 176.877 53.3854Z" fill="#5834EA"/>
<path d="M184.68 204.729C184.613 204.601 184.52 204.488 184.409 204.395C184.297 204.303 184.168 204.233 184.029 204.19C183.891 204.147 183.745 204.132 183.6 204.145C183.456 204.159 183.315 204.2 183.187 204.268L178.709 206.618L177.175 118.942H177.053L174.718 245.367H179.387L178.752 209.087L184.217 206.219C184.346 206.151 184.459 206.059 184.552 205.948C184.645 205.836 184.715 205.708 184.758 205.57C184.801 205.431 184.816 205.286 184.803 205.142C184.79 204.998 184.748 204.858 184.68 204.729Z" fill="#3F3D56"/>
<path d="M274.675 256.102H15.7557C11.8172 256.098 8.04125 254.536 5.25631 251.759C2.47137 248.982 0.90484 245.217 0.900391 241.29V103.492C0.90484 99.5645 2.47137 95.7995 5.25631 93.0226C8.04125 90.2457 11.8172 88.6838 15.7557 88.6793H274.675C278.614 88.6838 282.39 90.2457 285.175 93.0226C287.96 95.7995 289.526 99.5645 289.531 103.492V241.29C289.526 245.217 287.96 248.982 285.175 251.759C282.39 254.536 278.614 256.098 274.675 256.102Z" fill="white"/>
<path d="M204.33 244.432H37.1267C36.9174 244.433 36.7082 244.428 36.502 244.416L115.581 200.009C117.087 199.146 120.465 198.843 123.127 199.331C123.857 199.443 124.563 199.672 125.22 200.009L178.292 229.81L180.834 231.236L204.33 244.432Z" fill="#E6E6E6"/>
<path d="M257.08 244.432H112.463L140.487 231.236L142.504 230.285L179.022 213.087C181.416 211.96 187.175 211.89 189.99 212.875C190.179 212.942 190.354 213.013 190.516 213.087L257.08 244.432Z" fill="#E6E6E6"/>
<path d="M274.675 256.102H15.7557C11.8172 256.098 8.04125 254.536 5.25631 251.759C2.47137 248.982 0.90484 245.217 0.900391 241.29V103.492C0.90484 99.5645 2.47137 95.7995 5.25631 93.0226C8.04125 90.2457 11.8172 88.6838 15.7557 88.6793H274.675C278.614 88.6838 282.39 90.2457 285.175 93.0226C287.96 95.7995 289.526 99.5645 289.531 103.492V241.29C289.526 245.217 287.96 248.982 285.175 251.759C282.39 254.536 278.614 256.098 274.675 256.102ZM15.7557 89.577C12.0559 89.5812 8.50881 91.0486 5.89265 93.6571C3.2765 96.2657 1.80491 99.8025 1.80071 103.492V241.29C1.80491 244.979 3.2765 248.516 5.89265 251.124C8.50881 253.733 12.0559 255.2 15.7557 255.205H274.675C278.375 255.2 281.922 253.733 284.538 251.124C287.155 248.516 288.626 244.979 288.63 241.29V103.492C288.626 99.8025 287.155 96.2657 284.538 93.6571C281.922 91.0486 278.375 89.5812 274.675 89.577H15.7557Z" fill="#3F3D56"/>
<path d="M274.675 245.33H15.7555C14.6814 245.329 13.6516 244.903 12.8921 244.145C12.1326 243.388 11.7053 242.361 11.7041 241.29V103.492C11.7053 102.421 12.1326 101.394 12.8921 100.636C13.6516 99.8791 14.6814 99.4531 15.7555 99.4519H274.675C275.749 99.4531 276.779 99.8791 277.539 100.636C278.298 101.394 278.725 102.421 278.727 103.492V241.29C278.725 242.361 278.298 243.388 277.539 244.145C276.779 244.903 275.749 245.329 274.675 245.33ZM15.7555 100.35C14.9201 100.351 14.1191 100.682 13.5284 101.271C12.9377 101.86 12.6054 102.659 12.6044 103.492V241.29C12.6054 242.123 12.9377 242.922 13.5284 243.511C14.1191 244.1 14.9201 244.431 15.7555 244.432H274.675C275.511 244.431 276.312 244.1 276.902 243.511C277.493 242.922 277.825 242.123 277.826 241.29V103.492C277.825 102.659 277.493 101.86 276.902 101.271C276.312 100.682 275.511 100.351 274.675 100.35H15.7555Z" fill="#CCCCCC"/>
<path d="M216.984 124.675C232.375 124.675 244.851 112.235 244.851 96.8893C244.851 81.5438 232.375 69.1038 216.984 69.1038C201.594 69.1038 189.118 81.5438 189.118 96.8893C189.118 112.235 201.594 124.675 216.984 124.675Z" fill="#FF6584"/>
<path d="M228.634 198.051C248.127 198.051 263.928 178.329 263.928 154.002C263.928 129.674 248.127 109.952 228.634 109.952C209.142 109.952 193.34 129.674 193.34 154.002C193.34 178.329 209.142 198.051 228.634 198.051Z" fill="#F2F2F2"/>
<path d="M228.732 145.144H228.828L230.574 244.918H226.889L228.732 145.144Z" fill="#CCCCCC"/>
<path d="M234.752 211.197C234.859 211.402 234.881 211.64 234.813 211.861C234.744 212.081 234.591 212.265 234.386 212.373L229.324 215.03L228.511 213.49L233.573 210.833C233.778 210.725 234.017 210.703 234.238 210.772C234.459 210.84 234.644 210.993 234.752 211.197Z" fill="#CCCCCC"/>
<path d="M127.166 198.051C146.658 198.051 162.459 178.329 162.459 154.002C162.459 129.674 146.658 109.952 127.166 109.952C107.673 109.952 91.8716 129.674 91.8716 154.002C91.8716 178.329 107.673 198.051 127.166 198.051Z" fill="#F2F2F2"/>
<path d="M133.282 212.847V212.847C133.175 212.643 132.99 212.49 132.769 212.421C132.548 212.353 132.308 212.375 132.104 212.482L128.57 214.338L127.359 145.144H127.262L125.42 244.918H129.105L128.604 216.286L132.917 214.022C133.122 213.915 133.275 213.731 133.344 213.51C133.412 213.29 133.39 213.051 133.282 212.847Z" fill="#CCCCCC"/>
<path d="M177.777 52.4877C202.476 52.4877 222.551 98.8913 222.551 129.717C222.551 160.543 202.529 185.533 177.83 185.533C153.131 185.533 133.109 160.543 133.109 129.717C133.109 98.8914 153.078 52.4877 177.777 52.4877Z" fill="#5834EA"/>
<path d="M185.581 203.832C185.513 203.704 185.421 203.59 185.309 203.498C185.197 203.405 185.068 203.335 184.93 203.292C184.791 203.249 184.645 203.234 184.501 203.248C184.356 203.261 184.216 203.302 184.087 203.37L179.609 205.72L178.076 118.045H177.953L175.619 244.469H180.287L179.653 208.19L185.117 205.321C185.246 205.254 185.36 205.162 185.453 205.05C185.545 204.939 185.615 204.81 185.658 204.672C185.701 204.534 185.717 204.388 185.703 204.244C185.69 204.1 185.648 203.96 185.581 203.832Z" fill="#3F3D56"/>
</svg>
