<svg width="24" height="24" viewBox="0 0 24 24" fill="none" xmlns="http://www.w3.org/2000/svg">
<path d="M5 21C4.45 21 3.979 20.8043 3.587 20.413C3.19567 20.021 3 19.55 3 19V5C3 4.45 3.19567 3.979 3.587 3.587C3.979 3.19567 4.45 3 5 3H16.175C16.4417 3 16.696 3.05 16.938 3.15C17.1793 3.25 17.3917 3.39167 17.575 3.575L20.425 6.425C20.6083 6.60833 20.75 6.82067 20.85 7.062C20.95 7.304 21 7.55833 21 7.825V19C21 19.55 20.8043 20.021 20.413 20.413C20.021 20.8043 19.55 21 19 21H5ZM12 18C12.8333 18 13.5417 17.7083 14.125 17.125C14.7083 16.5417 15 15.8333 15 15C15 14.1667 14.7083 13.4583 14.125 12.875C13.5417 12.2917 12.8333 12 12 12C11.1667 12 10.4583 12.2917 9.875 12.875C9.29167 13.4583 9 14.1667 9 15C9 15.8333 9.29167 16.5417 9.875 17.125C10.4583 17.7083 11.1667 18 12 18ZM7 10H14C14.2833 10 14.521 9.904 14.713 9.712C14.9043 9.52067 15 9.28333 15 9V7C15 6.71667 14.9043 6.479 14.713 6.287C14.521 6.09567 14.2833 6 14 6H7C6.71667 6 6.479 6.09567 6.287 6.287C6.09567 6.479 6 6.71667 6 7V9C6 9.28333 6.09567 9.52067 6.287 9.712C6.479 9.904 6.71667 10 7 10Z" fill="#5834EA"/>
</svg>
